<svg id="Слой_1" data-name="Слой 1" xmlns="http://www.w3.org/2000/svg" viewBox="0 0 300.47244 299.88976">
  <defs>
    <style>
      .cls-1 {
        fill: #fff;
        stroke: #fff;
        stroke-miterlimit: 22.9256;
        stroke-width: 0.5669px;
      }
    </style>
  </defs>
  <path class="cls-1" d="M214.01572,128.68494a85.0394,85.0394,0,1,1-85.0393,85.0394v-42.5197H22.67712a21.25979,21.25979,0,0,1-15.03289-36.2928L127.908,14.64805l7.29521-7.2953a21.25979,21.25979,0,0,1,36.29279,15.033V128.68494Zm-2.158-72.85342a7.08641,7.08641,0,0,0-7.0864,7.0864V91.264a7.08666,7.08666,0,1,0,14.17332,0v-7.0863h14.17288V91.264a7.08675,7.08675,0,1,0,14.1735,0V62.91792a7.08675,7.08675,0,0,0-14.1735,0v7.0863H218.94465v-7.0863a7.0866,7.0866,0,0,0-7.08692-7.0864Zm49.6065,14.1727h11.238l-16.249,16.249a7.0866,7.0866,0,0,0,5.011,12.0977H289.811a7.0866,7.0866,0,0,0,0-14.1732l-11.2397.00059,16.2502-16.24989a7.08584,7.08584,0,0,0-5.03488-12.0969H261.46423a7.08635,7.08635,0,1,0,0,14.1727Zm-92.1257,148.81859a42.5197,42.5197,0,1,0,42.5197-42.5197h-42.5197v42.5197Zm-42.51959-85.03939V78.81l-54.9735,54.9734Z"/>
</svg>
