<svg width="100" height="104" viewBox="0 0 100 104" fill="none" xmlns="http://www.w3.org/2000/svg">
<g clip-path="url(#clip0)">
<path d="M24.9999 104H79.9999C83.6818 104 86.6666 100.896 86.6666 97.0667V27.7333C86.6552 24.5814 84.6011 21.8341 81.6666 21.0461V6.93333C81.6666 3.10416 78.6818 0 74.9999 0H24.9999C18.5596 0.00764164 13.3406 5.43545 13.3333 12.1333V91.8667C13.3406 98.5646 18.5596 103.992 24.9999 104ZM83.3333 27.7333V97.0667C83.3333 98.9813 81.8409 100.533 79.9999 100.533H26.6666V24.2667H79.9999C81.8409 24.2667 83.3333 25.8187 83.3333 27.7333ZM24.9999 3.46667H74.9999C76.8409 3.46667 78.3333 5.01875 78.3333 6.93333H24.9999C24.0794 6.93333 23.3333 7.70937 23.3333 8.66667C23.3333 9.62396 24.0794 10.4 24.9999 10.4H78.3333V13.8667H24.9999C24.0794 13.8667 23.3333 14.6427 23.3333 15.6C23.3333 16.5573 24.0794 17.3333 24.9999 17.3333H78.3333V20.8H24.9999C20.3975 20.8 16.6666 16.9198 16.6666 12.1333C16.6666 7.34687 20.3975 3.46667 24.9999 3.46667ZM16.6666 20.6076C18.4556 22.5122 20.799 23.7497 23.3333 24.128V100.36C19.4559 99.5307 16.6716 95.9835 16.6666 91.8667V20.6076Z" fill="white"/>
<path d="M66.6668 83.2H65.0001V75.9356C65.0844 71.4101 66.4452 67.0102 68.9134 63.2822C70.7411 60.4097 71.7001 57.0338 71.6668 53.5894C71.5275 44.283 64.3976 36.7239 55.4534 36.4C49.2524 36.2249 43.471 39.646 40.4478 45.2794C37.4246 50.9128 37.6598 57.8263 41.0584 63.2233C43.5363 66.9709 44.9064 71.3902 45.0001 75.9373V83.2H43.3334C42.4129 83.2 41.6667 83.976 41.6667 84.9333C41.6667 85.8906 42.4129 86.6666 43.3334 86.6666H45.5834C46.9901 90.8215 50.7646 93.6011 55.0001 93.6011C59.2356 93.6011 63.0101 90.8215 64.4167 86.6666H66.6668C67.5872 86.6666 68.3334 85.8906 68.3334 84.9333C68.3334 83.976 67.5872 83.2 66.6668 83.2ZM43.8451 61.327C41.1246 57.0085 40.9364 51.4756 43.3565 46.9679C45.7766 42.4601 50.4044 39.7239 55.3667 39.8666C62.5205 40.127 68.2224 46.1736 68.3334 53.6172C68.3592 56.3686 67.5931 59.0651 66.1334 61.36C63.3016 65.6575 61.7482 70.7265 61.6667 75.9356V78H56.6667V67.4613C60.5651 66.8252 61.6667 63.9946 61.6667 62.4C61.6641 61.4701 60.9458 60.7137 60.0518 60.6996C59.1611 60.7202 58.4249 61.4279 58.3351 62.3497C58.3151 62.6478 58.0684 64.1333 55.0017 64.1333C51.9584 64.1333 51.6901 62.6704 51.6684 62.3584C51.6574 61.4006 50.9018 60.6335 49.9809 60.645C49.06 60.6565 48.3224 61.4422 48.3334 62.4C48.5158 65.168 50.6682 67.352 53.3334 67.4734V78H48.3334V75.9373C48.2383 70.7164 46.6782 65.6382 43.8451 61.327ZM55.0001 90.1333C51.3182 90.1333 48.3334 87.0291 48.3334 83.2V81.4666H61.6667V83.2C61.6667 87.0291 58.682 90.1333 55.0001 90.1333Z" fill="white"/>
<path d="M33.3331 52H31.6664C30.7459 52 29.9998 52.776 29.9998 53.7333C29.9998 54.6906 30.7459 55.4667 31.6664 55.4667H33.3331C34.2536 55.4667 34.9998 54.6906 34.9998 53.7333C34.9998 52.776 34.2536 52 33.3331 52Z" fill="white"/>
<path d="M78.3331 52H76.6664C75.7459 52 74.9998 52.776 74.9998 53.7333C74.9998 54.6906 75.7459 55.4667 76.6664 55.4667H78.3331C79.2536 55.4667 79.9998 54.6906 79.9998 53.7333C79.9998 52.776 79.2536 52 78.3331 52Z" fill="white"/>
<path d="M38.4997 39.026C39.151 39.7033 40.2068 39.7033 40.8581 39.026C41.5093 38.3487 41.5093 37.2507 40.8581 36.5734L39.6797 35.3479C39.0258 34.691 37.9863 34.7004 37.3434 35.369C36.7005 36.0376 36.6915 37.1187 37.3231 37.7988L38.4997 39.026Z" fill="white"/>
<path d="M71.5001 68.4406C70.8488 67.7633 69.793 67.7633 69.1417 68.4406C68.4905 69.1179 68.4905 70.216 69.1417 70.8932L70.3201 72.1187C70.974 72.7756 72.0135 72.7662 72.6564 72.0976C73.2993 71.429 73.3084 70.3479 72.6767 69.6678L71.5001 68.4406Z" fill="white"/>
<path d="M38.4999 68.4407L37.3216 69.6661C36.8883 70.1013 36.7146 70.7458 36.8671 71.3518C37.0196 71.9578 37.4747 72.4311 38.0574 72.5897C38.6401 72.7484 39.2598 72.5677 39.6783 72.1171L40.8566 70.8916C41.4882 70.2115 41.4792 69.1304 40.8363 68.4618C40.1934 67.7932 39.1539 67.7838 38.4999 68.4407Z" fill="white"/>
<path d="M70.32 35.3496L69.1417 36.5751C68.7207 37.0132 68.5565 37.6516 68.7108 38.2498C68.8651 38.8481 69.3146 39.3152 69.89 39.4753C70.4653 39.6354 71.079 39.4641 71.5 39.026L72.6784 37.8005C73.31 37.1204 73.301 36.0393 72.6581 35.3707C72.0152 34.7021 70.9757 34.6927 70.3217 35.3496H70.32Z" fill="white"/>
</g>
<defs>
<clipPath id="clip0">
<rect width="100" height="104" fill="white"/>
</clipPath>
</defs>
</svg>
