<svg width="100" height="100" viewBox="0 0 100 100" fill="none" xmlns="http://www.w3.org/2000/svg">
<path d="M85.3555 14.6445C75.9115 5.20098 63.3555 0 50 0C36.6445 0 24.0885 5.20098 14.6445 14.6445C5.20098 24.0883 0 36.6445 0 50C0 63.3555 5.20098 75.9117 14.6445 85.3555C24.0885 94.799 36.6445 100 50 100C63.3555 100 75.9115 94.799 85.3555 85.3555C94.799 75.9117 100 63.3555 100 50C100 36.6445 94.799 24.0883 85.3555 14.6445ZM50 97.0703C24.0453 97.0703 2.92969 75.9547 2.92969 50C2.92969 24.0453 24.0453 2.92969 50 2.92969C75.9547 2.92969 97.0703 24.0453 97.0703 50C97.0703 75.9547 75.9547 97.0703 50 97.0703Z" fill="white"/>
<path d="M81.2121 18.7879C72.875 10.4508 61.7904 5.85938 50 5.85938C38.2096 5.85938 27.125 10.4508 18.7879 18.7879C10.4508 27.125 5.85938 38.2098 5.85938 50C5.85938 55.4766 6.85293 60.8258 8.8127 65.8988C9.1041 66.6533 9.95195 67.0295 10.707 66.7375C11.4617 66.4461 11.8371 65.5978 11.5455 64.8434C9.8916 60.5615 8.97754 56.0676 8.81719 51.4648H24.2791C24.4189 60.94 25.9141 69.9791 28.5086 77.6494C26.5236 78.5971 24.5947 79.6793 22.7334 80.8936C19.2541 77.8256 16.265 74.1498 13.9437 69.9672C13.5512 69.2598 12.6594 69.0045 11.9521 69.3973C11.2447 69.7898 10.9896 70.6814 11.3822 71.3889C14.0449 76.1863 17.527 80.3621 21.5969 83.7812C21.6459 83.8289 21.6982 83.8715 21.7525 83.9111C25.9684 87.4199 30.8078 90.1199 36.0172 91.8629C36.1318 91.9188 36.2533 91.9574 36.3773 91.9816C40.7156 93.3918 45.3047 94.1406 50 94.1406C61.7904 94.1406 72.875 89.5492 81.2121 81.2121C89.5492 72.875 94.1406 61.7902 94.1406 50C94.1406 38.2098 89.5492 27.125 81.2121 18.7879ZM32.8848 12.515C31.6389 14.6648 30.5133 17.0354 29.5162 19.5854C28.018 18.8592 26.5549 18.0498 25.1312 17.1611C27.5256 15.3436 30.1232 13.7809 32.8848 12.515ZM8.81797 48.5352C9.22871 36.84 14.535 26.3703 22.7471 19.1154C24.6043 20.326 26.5285 21.4053 28.5086 22.3506C25.9141 30.0209 24.4191 39.06 24.2791 48.5352H8.81797ZM25.1197 82.8457C26.5471 81.9545 28.0141 81.1428 29.5162 80.4146C30.5125 82.9631 31.6375 85.3322 32.8824 87.4809C30.1344 86.2246 27.5303 84.6705 25.1197 82.8457ZM48.5352 91.1846C44.7578 91.0502 41.0662 90.3979 37.548 89.2807C35.4803 86.4689 33.6795 83.0674 32.1854 79.2238C37.3525 77.1072 42.8727 75.9301 48.5352 75.7568V91.1846ZM48.5352 72.826C42.5295 72.999 36.6736 74.2352 31.1891 76.466C28.7518 69.1641 27.3455 60.5373 27.2086 51.4648H48.5352V72.826ZM48.5352 48.5352H27.2086C27.3455 39.4627 28.7518 30.8359 31.1891 23.534C36.6736 25.7648 42.5295 27.001 48.5352 27.174V48.5352ZM48.5352 24.2434C42.8725 24.0701 37.3525 22.893 32.1854 20.7764C33.6809 16.9291 35.4836 13.525 37.5537 10.7117C41.0381 9.60547 44.7215 8.95195 48.5352 8.81797V24.2434ZM91.182 48.5352H75.7209C75.5811 39.06 74.0859 30.0209 71.4914 22.3506C73.4715 21.4053 75.3957 20.326 77.2529 19.1154C85.465 26.3703 90.7713 36.84 91.182 48.5352ZM74.8688 17.1611C73.4451 18.0498 71.982 18.859 70.4838 19.5854C69.4867 17.0354 68.3611 14.6648 67.1152 12.5152C69.8766 13.7811 72.4744 15.3436 74.8688 17.1611ZM51.465 8.81797C55.2785 8.95176 58.9619 9.60527 62.4463 10.7117C64.5164 13.525 66.3191 16.9291 67.8148 20.7764C62.6477 22.893 57.1277 24.0701 51.465 24.2434V8.81797ZM51.4648 27.174C57.4705 27.001 63.3264 25.7648 68.8109 23.534C71.2484 30.8359 72.6547 39.4627 72.7914 48.5352H51.4648V27.174ZM51.4648 51.4648H72.7914C72.6545 60.5373 71.2482 69.1641 68.8109 76.466C63.3264 74.2352 57.4705 72.999 51.4648 72.826V51.4648ZM51.4648 91.182V75.7566C57.1275 75.9299 62.6475 77.107 67.8146 79.2236C66.3191 83.0709 64.5164 86.475 62.4463 89.2883C58.9619 90.3945 55.2785 91.048 51.4648 91.182ZM67.1152 87.485C68.3611 85.3352 69.4867 82.9646 70.4838 80.4146C71.982 81.1408 73.4451 81.9502 74.8688 82.8389C72.4744 84.6564 69.8768 86.2191 67.1152 87.485ZM77.2529 80.8846C75.3957 79.674 73.4715 78.5947 71.4914 77.6494C74.0859 69.9791 75.5809 60.94 75.7209 51.4648H91.182C90.7713 63.16 85.465 73.6297 77.2529 80.8846Z" fill="white"/>
</svg>
