<svg width="60" height="60" viewBox="0 0 60 60" fill="none" xmlns="http://www.w3.org/2000/svg">
<path d="M50.9519 40.168L50.3573 39.1966C49.1953 37.2986 47.7888 35.5581 46.1772 34.0234L44.1892 32.1304C44.0003 31.9503 43.9719 31.6646 44.1218 31.451L46.8363 27.5829C47.2278 27.0251 47.589 26.4376 47.9101 25.8369L50.2297 21.4966C50.634 20.7403 50.6124 19.8493 50.1718 19.1134C49.7314 18.3776 48.9562 17.9375 48.0986 17.9366L43.0778 17.9309C43.0767 17.9309 43.0758 17.9309 43.0747 17.9309C42.0228 17.9309 41.0702 18.553 40.6475 19.5163L40.1157 20.728C38.7589 23.8195 36.9069 26.6384 34.6093 29.1098V20.2637C34.6093 18.9768 33.5622 17.9297 32.2754 17.9297H25.1644C23.9967 17.9297 23.0469 18.8796 23.0469 20.0473C23.0469 20.4932 23.1844 20.9203 23.4443 21.2822L23.9419 21.9754C24.4297 22.6547 24.6875 23.4559 24.6875 24.2924V30.7563C23.8106 29.7379 22.7429 28.3548 21.839 26.7647C20.4549 24.3295 19.4628 21.49 18.9947 20.014C18.5992 18.7673 17.4549 17.9297 16.1472 17.9297H11.062C10.3444 17.9297 9.68435 18.2578 9.25076 18.8299C8.81752 19.4021 8.68052 20.1266 8.87517 20.8177L9.82381 24.1845C10.4052 26.2482 11.2044 28.2573 12.1992 30.156C12.4994 30.7291 13.2075 30.9505 13.781 30.6502C14.3544 30.3498 14.5755 29.6415 14.2752 29.0682C13.3558 27.3134 12.6172 25.4564 12.0798 23.5489L11.1569 20.2734H16.1474C16.429 20.2734 16.6754 20.4539 16.7606 20.7226C17.2567 22.2862 18.3113 25.3011 19.8016 27.9227C21.0244 30.0738 22.5078 31.8659 23.5372 32.9904C24.1011 33.6064 24.9688 33.8093 25.7476 33.5065C26.5274 33.2036 27.0313 32.4673 27.0313 31.6309V24.2924C27.0313 22.9624 26.6212 21.6885 25.8458 20.6084L25.6052 20.2734H32.2656V29.6713C32.2656 30.3588 32.6108 30.9911 33.1891 31.3628C33.7673 31.7346 34.4858 31.7861 35.1113 31.5005L35.5945 31.2799C35.8172 31.1784 36.0149 31.0368 36.1826 30.8588C38.7258 28.158 40.7711 25.0664 42.262 21.6697L42.7938 20.458C42.8427 20.3464 42.9529 20.2745 43.0747 20.2745H43.0751L48.096 20.2802C48.1131 20.2802 48.139 20.2804 48.161 20.3171C48.1831 20.3541 48.1708 20.3768 48.1629 20.3919L45.8433 24.7321C45.5666 25.2497 45.2552 25.7558 44.9179 26.2365L42.2034 30.1046C41.3817 31.2756 41.5372 32.8413 42.573 33.8277L44.561 35.7207C46.0251 37.1149 47.3028 38.6962 48.3586 40.4204L48.9532 41.3918C48.9675 41.4151 49.011 41.4862 48.9568 41.5829C48.9027 41.6796 48.8192 41.6796 48.7919 41.6796H44.4573C43.9003 41.6796 43.3582 41.4506 42.9699 41.0514L38.6356 36.5947C37.6142 35.5445 36.318 34.8232 34.8871 34.5091C34.2457 34.3682 33.5836 34.5234 33.0715 34.9354C32.5594 35.3473 32.2657 35.9603 32.2657 36.6173V40.9962C32.2657 41.373 31.9591 41.6797 31.5821 41.6797C28.2233 41.6797 24.9042 40.5559 22.2362 38.5153C21.1613 37.6932 20.1362 36.7866 19.1892 35.8207C18.7362 35.3588 17.9942 35.3511 17.5319 35.8043C17.0697 36.2575 17.0625 36.9995 17.5155 37.4616C18.5401 38.5066 19.6493 39.4875 20.8122 40.377C23.8867 42.7284 27.7114 44.0235 31.582 44.0235C33.2512 44.0235 34.6093 42.6654 34.6093 40.9962V36.8531C35.5017 37.0914 36.3088 37.564 36.9554 38.2289L41.2897 42.6855C42.1166 43.5357 43.2711 44.0235 44.4573 44.0235H48.7919C49.7075 44.0235 50.5542 43.5273 51.0015 42.7286C51.4489 41.9299 51.4299 40.9487 50.9519 40.168Z" fill="white"/>
<path d="M16.4127 32.5259L16.3997 32.5077C16.0225 31.9818 15.2905 31.8609 14.7645 32.2382C14.2386 32.6154 14.1179 33.3475 14.495 33.8734C14.4954 33.8742 14.5025 33.884 14.5029 33.8847L15.4604 33.2087L14.508 33.8916C14.7368 34.2108 15.0965 34.3807 15.4614 34.3807C15.6977 34.3807 15.9364 34.3093 16.1432 34.1611C16.6691 33.7839 16.7898 33.0518 16.4127 32.5259Z" fill="white"/>
<path d="M24.0076 52.0312H14.4568C13.8097 52.0312 13.2849 52.5559 13.2849 53.2031C13.2849 53.8504 13.8097 54.375 14.4568 54.375H24.0076C24.6548 54.375 25.1794 53.8504 25.1794 53.2031C25.1794 52.5559 24.6547 52.0312 24.0076 52.0312Z" fill="white"/>
<path d="M29.3394 52.0312H29.3254C28.6783 52.0312 28.1536 52.5559 28.1536 53.2031C28.1536 53.8504 28.6783 54.375 29.3254 54.375H29.3394C29.9866 54.375 30.5113 53.8504 30.5113 53.2031C30.5113 52.5559 29.9865 52.0312 29.3394 52.0312Z" fill="white"/>
<path d="M52.2656 0H7.73438C3.46957 0 0 3.46957 0 7.73438V52.2656C0 56.5304 3.46957 60 7.73438 60H52.2656C56.5304 60 60 56.5304 60 52.2656V7.73438C60 3.46957 56.5304 0 52.2656 0ZM57.6562 52.2656C57.6562 55.238 55.238 57.6562 52.2656 57.6562H7.73438C4.76203 57.6562 2.34375 55.238 2.34375 52.2656V7.73438C2.34375 4.76203 4.76203 2.34375 7.73438 2.34375H52.2656C55.238 2.34375 57.6562 4.76203 57.6562 7.73438V52.2656Z" fill="white"/>
</svg>
