<svg width="100" height="100" viewBox="0 0 100 100" fill="none" xmlns="http://www.w3.org/2000/svg">
<g clip-path="url(#clip0)">
<path d="M53.667 13.5493C52.4319 13.446 51.1981 13.3936 50 13.3936C38.4665 13.3936 27.6232 17.8849 19.4677 26.0404C11.3122 34.196 6.82078 45.0392 6.82078 56.5728V58.803H2.92319V56.931C2.92319 53.0075 3.40006 49.0929 4.34035 45.2959C4.53445 44.5123 4.05641 43.7199 3.273 43.5258C2.48939 43.3319 1.69701 43.8097 1.50291 44.5933C0.505712 48.6199 0 52.7709 0 56.931V59.1637C0 60.5766 1.1494 61.7262 2.56247 61.7262H3.41039V67.8267C1.46997 68.4468 0.0608024 70.2668 0.0608024 72.4102V87.6155C0.0608024 90.2684 2.21909 92.4267 4.87198 92.4267C6.79486 92.4267 8.45718 91.2923 9.22676 89.6578H12.2897V92.392C12.2897 96.5455 15.6689 99.9247 19.8223 99.9247H24.8512C26.9875 99.9247 28.7256 98.1865 28.7256 96.0503V63.9755C28.7256 61.8392 26.9877 60.1011 24.8512 60.1011H19.8223C15.6689 60.1011 12.2897 63.4803 12.2897 67.6337V70.3679H9.22676C8.66102 69.1665 7.61316 68.2357 6.33358 67.8269V61.7264H7.1815C8.59437 61.7264 9.74397 60.577 9.74397 59.1639V56.573C9.74397 45.8203 13.9313 35.7111 21.5346 28.1077C29.138 20.5043 39.2471 16.3171 49.9998 16.3171C51.1169 16.3171 52.2688 16.366 53.4233 16.4627C54.2293 16.5315 54.9343 15.9324 55.0016 15.128C55.0688 14.3235 54.4715 13.6167 53.667 13.5493ZM25.8024 63.9755V96.0501C25.8024 96.5745 25.3758 97.0013 24.8512 97.0013H21.2839V63.0241H24.8512C25.3758 63.0243 25.8024 63.451 25.8024 63.9755ZM15.2129 67.6337C15.2129 65.6029 16.5336 63.8759 18.3608 63.2632V96.7626C16.5336 96.1498 15.2129 94.4228 15.2129 92.392V67.6337ZM12.2897 86.7346H9.68317V73.2911H12.2897V86.7346ZM6.75997 87.6155C6.75997 88.6565 5.91303 89.5035 4.87198 89.5035C3.83094 89.5035 2.98399 88.6565 2.98399 87.6155V72.4102C2.98399 71.3692 3.83094 70.5222 4.87198 70.5222C5.91303 70.5222 6.75997 71.3692 6.75997 72.4102V87.6155Z" fill="white"/>
<path d="M53.6679 6.71014C52.4793 6.62245 51.2948 6.57626 50.1476 6.57295C50.0981 6.57295 50.0495 6.57275 50 6.57275C36.742 6.57275 24.2584 11.703 14.8356 21.0275C9.83503 25.9761 5.99941 31.847 3.43519 38.4776C3.14404 39.2304 3.51821 40.0768 4.27122 40.368C4.44447 40.435 4.62278 40.4668 4.79798 40.4668C5.38418 40.4668 5.93744 40.1115 6.16155 39.5321C8.57611 33.2886 12.1864 27.762 16.8918 23.1053C25.7966 14.2935 37.5999 9.46886 50.139 9.49614C51.2177 9.49926 52.3326 9.54272 53.4527 9.62534C54.2584 9.68595 54.9586 9.08046 55.0178 8.27522C55.0774 7.47017 54.4729 6.76958 53.6679 6.71014Z" fill="white"/>
<path d="M95.5771 39.7486C94.8114 40.0044 94.3982 40.8327 94.6541 41.5982C96.2617 46.4074 97.0767 51.4456 97.0767 56.5729V58.8031H93.1791V56.5729C93.1791 51.3885 92.274 46.3226 90.4892 41.5157C90.2081 40.759 89.3668 40.3729 88.6101 40.6544C87.8534 40.9354 87.4677 41.7765 87.7488 42.5334C89.4122 47.0137 90.2559 51.7373 90.2559 56.5729V59.1638C90.2559 60.5767 91.4053 61.7263 92.8183 61.7263H93.6663V67.8268C92.3867 68.2358 91.3388 69.1666 90.7731 70.368H87.7102V67.6338C87.7102 63.4804 84.331 60.1012 80.1775 60.1012H75.1486C73.0122 60.1012 71.274 61.8393 71.274 63.9756V86.808C71.274 87.6152 71.9285 88.2696 72.7356 88.2696C73.5428 88.2696 74.1972 87.6152 74.1972 86.808V63.9756C74.1972 63.4511 74.624 63.0244 75.1486 63.0244H78.7159V97.0016H75.1486C74.624 97.0016 74.1972 96.5748 74.1972 96.0504V93.0369C74.1972 92.2298 73.5428 91.5753 72.7356 91.5753C71.9285 91.5753 71.274 92.2298 71.274 93.0369V96.0504C71.274 98.1866 73.0122 99.9248 75.1486 99.9248H80.1775C84.331 99.9248 87.7102 96.5457 87.7102 92.3921V89.6579H90.7731C91.5427 91.2924 93.205 92.4268 95.1279 92.4268C97.7808 92.4268 99.939 90.2685 99.939 87.6156V72.4103C99.939 70.2669 98.5299 68.4471 96.5895 67.8268V61.7263H97.4374C98.8503 61.7263 99.9998 60.5769 99.9998 59.1638V56.5729C99.9998 51.1299 99.134 45.7799 97.4265 40.6715C97.1708 39.9058 96.3427 39.4929 95.5771 39.7486ZM84.7872 92.3921C84.7872 94.4229 83.4665 96.1499 81.6393 96.7626V63.2633C83.4665 63.876 84.7872 65.603 84.7872 67.6338V92.3921ZM87.7104 73.2912H90.3169V86.7347H87.7104V73.2912ZM97.016 87.6156C97.016 88.6566 96.1691 89.5036 95.1281 89.5036C94.087 89.5036 93.2401 88.6566 93.2401 87.6156V72.4103C93.2401 71.3693 94.087 70.5223 95.1281 70.5223C96.1691 70.5223 97.016 71.3693 97.016 72.4103V87.6156Z" fill="white"/>
<path d="M98.5385 10.5212C99.3457 10.5212 100 9.86681 100 9.05962V8.76613C100 3.97366 96.1012 0.074707 91.3089 0.074707H66.6214C61.8291 0.074707 57.9302 3.97366 57.9302 8.76613V28.9484C57.9302 33.2533 61.0761 36.8371 65.1896 37.5219V43.4679C65.1896 44.4877 65.8064 45.3793 66.7607 45.739C67.0447 45.846 67.3372 45.8979 67.6256 45.8979C68.3071 45.8979 68.967 45.6081 69.4399 45.0698L75.9686 37.6397H91.3089C96.1012 37.6397 100 33.7407 100 28.9482V15.2884C100 14.4812 99.3457 13.8268 98.5385 13.8268C97.7314 13.8268 97.077 14.4812 97.077 15.2884V28.9482C97.077 32.1289 94.4893 34.7165 91.3089 34.7165H75.3072C74.8868 34.7165 74.4867 34.8975 74.2092 35.2132L68.1128 42.1515V36.1781C68.1128 35.3709 67.4584 34.7165 66.6512 34.7165H66.6214C63.441 34.7165 60.8534 32.1289 60.8534 28.9482V8.76594C60.8534 5.58531 63.441 2.9977 66.6214 2.9977H91.3089C94.4893 2.9977 97.077 5.58531 97.077 8.76594V9.05942C97.077 9.86681 97.7314 10.5212 98.5385 10.5212Z" fill="white"/>
<path d="M90.756 9.57493C90.756 8.75819 90.3836 8.00537 89.7346 7.5098C89.0857 7.01422 88.2616 6.85325 87.4735 7.06839L76.9453 9.94228C75.8185 10.25 75.0314 11.2807 75.0314 12.4488V22.4403C73.6967 22.0983 72.114 22.3405 70.7318 23.227C68.3517 24.7531 67.4549 27.6157 68.7325 29.6083C69.4818 30.777 70.8152 31.3907 72.2699 31.3907C73.2958 31.3907 74.3817 31.0855 75.366 30.4545C76.9486 29.4398 77.8745 27.834 77.9421 26.286C77.9495 26.226 77.9548 26.1654 77.9548 26.1032V19.6426L87.8328 16.946V20.6361C87.5904 20.5733 87.339 20.5291 87.0796 20.5063C85.8868 20.4016 84.6282 20.7308 83.5332 21.433C82.4382 22.1351 81.6134 23.1422 81.211 24.269C80.7677 25.5106 80.8854 26.8029 81.5337 27.8143C82.1823 28.8257 83.3075 29.4719 84.621 29.5873C84.766 29.6 84.9118 29.6062 85.0583 29.6062C86.1167 29.6062 87.2055 29.2772 88.1674 28.6604C89.2625 27.9583 90.0872 26.9512 90.4896 25.8244C90.6621 25.3415 90.7484 24.8511 90.7531 24.3723C90.7539 24.3521 90.7562 24.3322 90.7562 24.3117V9.57493H90.756ZM73.7881 27.9936C72.6946 28.6945 71.5427 28.5755 71.1932 28.0302C70.8436 27.4847 71.216 26.3885 72.3097 25.6874C72.8386 25.3483 73.3809 25.2011 73.8397 25.2011C74.3296 25.2011 74.7241 25.3691 74.9047 25.6507C75.2541 26.1962 74.8815 27.2926 73.7881 27.9936ZM77.9546 16.6124V12.6967L87.8326 10.0004V13.9161L77.9546 16.6124ZM87.7365 24.8414C87.5532 25.3549 87.1352 25.8501 86.5895 26.1999C86.044 26.5497 85.42 26.7235 84.8763 26.6752C84.6385 26.6544 84.2081 26.5696 83.9945 26.2365C83.7809 25.9035 83.8836 25.4769 83.9639 25.2522C84.1473 24.7387 84.5653 24.2435 85.1107 23.8939C85.597 23.5821 86.1455 23.4106 86.6437 23.4106C86.7047 23.4106 86.7649 23.4131 86.8239 23.4184C87.0617 23.4392 87.4922 23.524 87.7056 23.8571C87.9193 24.1903 87.8168 24.6169 87.7365 24.8414Z" fill="white"/>
</g>
<defs>
<clipPath id="clip0">
<rect width="100" height="100" fill="white"/>
</clipPath>
</defs>
</svg>
