<svg width="100" height="100" viewBox="0 0 100 100" fill="none" xmlns="http://www.w3.org/2000/svg">
<g clip-path="url(#clip0)">
<path d="M31.3392 74.2946C32.6259 74.7681 34.0585 74.4544 35.03 73.4442C35.062 73.411 35.0925 73.3763 35.1214 73.3403L43.0116 63.4522C43.0124 63.4513 43.0132 63.4501 43.014 63.4489C43.0249 63.4352 43.0339 63.42 43.0444 63.4058C43.0751 63.3642 43.1038 63.3216 43.1298 63.2772C43.1417 63.2569 43.1522 63.2362 43.1632 63.2153C43.1866 63.1704 43.2075 63.1247 43.2261 63.0778C43.2311 63.0651 43.2382 63.0538 43.2431 63.0407L46.7935 53.312C46.7935 53.312 46.7935 53.3118 46.7937 53.3116L54.0251 33.4962C54.0253 33.4956 54.0255 33.4948 54.0257 33.4942L61.928 11.8399C62.2122 11.106 61.7985 10.2169 61.054 9.96163L60.9677 9.93018L62.3735 6.07725C62.6866 5.21963 62.647 4.29151 62.2618 3.46358C61.8767 2.63584 61.1925 2.00752 60.3347 1.69444L56.298 0.221391C54.5282 -0.424508 52.5618 0.490141 51.9155 2.26045L50.5097 6.11338L50.0456 5.94405C49.6806 5.81104 49.2778 5.82803 48.9255 5.99209C48.5731 6.15596 48.3007 6.45303 48.1673 6.81807L46.1405 12.371C45.8632 13.1312 46.2546 13.972 47.0145 14.2493C47.7749 14.5267 48.6155 14.1353 48.8929 13.3753L50.4171 9.19834L58.6735 12.2114L51.7749 31.1153L43.5185 28.1022L46.5489 19.7981C46.8263 19.038 46.4349 18.1974 45.6749 17.9198C44.9149 17.6427 44.0739 18.0339 43.7966 18.7938L29.4823 58.0189C29.4718 58.0478 29.4638 58.0772 29.4552 58.1065C29.4513 58.1196 29.4466 58.1323 29.4431 58.1456C29.4292 58.1981 29.4181 58.2509 29.4101 58.3042C29.4089 58.312 29.4087 58.3198 29.4075 58.3276C29.4015 58.3733 29.3974 58.4192 29.3956 58.4653C29.3954 58.4712 29.3942 58.4767 29.394 58.4825L29.0608 71.1284C29.0595 71.1745 29.0604 71.2208 29.0638 71.2667C29.1583 72.6567 30.0304 73.8169 31.3392 74.2946ZM54.6671 3.26475C54.7595 3.01202 55.0401 2.88057 55.2933 2.97354L59.3298 4.44659C59.4952 4.50694 59.5733 4.63077 59.6052 4.69932C59.637 4.76787 59.6815 4.90713 59.621 5.07256L58.2149 8.92549L53.2612 7.11768L54.6671 3.26475ZM32.8868 71.4435C32.6819 71.6261 32.4608 71.5851 32.3437 71.5425C32.2261 71.4995 32.0306 71.3884 31.9917 71.1167L32.2688 60.5952L35.8603 61.9058L39.4517 63.2163L32.8868 71.4435ZM45.8364 47.387L44.5431 50.9312L36.2868 47.9179L42.5138 30.8544L50.77 33.8677L45.8364 47.387ZM43.5388 53.6833L40.9927 60.6601L32.7362 57.647L35.2823 50.6702L43.5388 53.6833Z" fill="white"/>
<path d="M99.8591 79.2799C99.288 77.0719 97.114 75.6879 94.8952 76.0483L93.4023 70.8297C93.0648 69.6489 91.8277 68.9541 90.6433 69.2827L85.756 70.6364C84.9763 70.8522 84.5193 71.6592 84.7355 72.4391C84.9513 73.2186 85.7572 73.676 86.538 73.4598L90.772 72.2871L92.0505 76.7561L53.7974 86.5278C53.6892 86.5555 53.5835 86.5883 53.4792 86.6235L51.988 83.0293L79.9525 75.284C80.7322 75.0682 81.1892 74.2612 80.973 73.4813C80.7572 72.7018 79.9513 72.2448 79.1704 72.4606L49.9999 80.5399L9.35637 69.2827C8.17317 68.9553 6.93528 69.6491 6.59758 70.8297L5.10442 76.0489C2.88664 75.6909 0.711448 77.0727 0.140745 79.2801C-0.151833 80.4114 0.0147685 81.5887 0.609495 82.5955C1.20754 83.6075 2.16594 84.3252 3.30793 84.6172L6.7841 85.5051C7.56614 85.7051 8.36555 85.2323 8.56574 84.4485C8.76594 83.6645 8.29289 82.8668 7.50891 82.6666L4.03313 81.7787C3.6509 81.6811 3.33059 81.4416 3.13176 81.1051C2.93567 80.7735 2.88078 80.3858 2.97688 80.0139C3.17805 79.2362 3.98235 78.7666 4.76867 78.9676L45.4769 89.3664C46.1257 89.5323 46.5786 90.1102 46.5786 90.7719C46.7665 95.295 53.2339 95.293 53.421 90.7719C53.421 90.11 53.8739 89.5321 54.5226 89.3664L95.231 78.9676C96.0163 78.7666 96.8214 79.236 97.0228 80.0139C97.1189 80.3858 97.064 80.7735 96.8679 81.1051C96.6689 81.4418 96.3488 81.6811 95.9667 81.7787L57.0954 91.7082C56.607 91.833 56.2169 92.2004 56.063 92.6807C54.1714 98.5252 45.8265 98.5223 43.9366 92.6807C43.7827 92.2004 43.3927 91.833 42.9042 91.7082L14.2238 84.3815C12.3282 83.9666 11.637 86.6756 13.4986 87.22L41.4363 94.3565C44.5808 101.864 55.4212 101.86 58.5636 94.3565L96.6923 84.6168C97.8341 84.325 98.7923 83.6071 99.3904 82.5952C99.9851 81.5887 100.152 80.4112 99.8591 79.2799ZM7.94934 76.7559L9.22785 72.2871L48.012 83.0291L46.5208 86.6233C46.4163 86.5881 46.3107 86.5551 46.2025 86.5276L7.94934 76.7559ZM49.9999 91.251C49.7288 91.251 49.5083 91.0358 49.5083 90.7715C49.5083 89.9659 49.2851 89.2037 48.8948 88.5457L49.9999 85.8825L51.105 88.5459C50.7148 89.2039 50.4915 89.9661 50.4915 90.7717C50.4915 91.036 50.271 91.251 49.9999 91.251Z" fill="white"/>
</g>
<defs>
<clipPath id="clip0">
<rect width="100" height="100" fill="white"/>
</clipPath>
</defs>
</svg>
