<svg width="100" height="100" viewBox="0 0 100 100" fill="none" xmlns="http://www.w3.org/2000/svg">
<path d="M95.3125 10.9375H4.6875C4.27311 10.9375 3.87569 11.1021 3.58267 11.3952C3.28965 11.6882 3.12502 12.0856 3.125 12.5V68.75C3.12502 69.1644 3.28965 69.5618 3.58267 69.8548C3.87569 70.1479 4.27311 70.3125 4.6875 70.3125H95.3125C95.7269 70.3125 96.1243 70.1479 96.4173 69.8548C96.7104 69.5618 96.875 69.1644 96.875 68.75V12.5C96.875 12.0856 96.7104 11.6882 96.4173 11.3952C96.1243 11.1021 95.7269 10.9375 95.3125 10.9375ZM50 42.1875H52.1123C51.3358 42.8153 50.6278 43.5233 50 44.2998V42.1875ZM62.5 48.4375H65.3562C65.1218 49.0956 64.7438 49.6933 64.2498 50.1874C63.7558 50.6814 63.1581 51.0593 62.5 51.2937V48.4375ZM62.5 45.3125V42.4563C63.1581 42.6907 63.7558 43.0687 64.2498 43.5627C64.7438 44.0567 65.1218 44.6544 65.3562 45.3125H62.5ZM59.375 42.3009V51.5625H50.1134C50.4543 49.2274 51.5398 47.0646 53.2085 45.396C54.8771 43.7273 57.0399 42.6418 59.375 42.3009ZM68.75 42.1875H93.7028C93.3121 48.6777 90.5577 54.8 85.9601 59.3976C81.3625 63.9952 75.2402 66.7496 68.75 67.1403V42.1875ZM50 39.0625V14.0625H67.1875C81.3094 14.0625 92.8911 25.1406 93.7028 39.0625H50ZM6.25 14.0625H31.8416C26.0545 16.3546 20.7981 19.8078 16.3967 24.2092C11.9953 28.6106 8.54209 33.867 6.25 39.6541V14.0625ZM6.25 56.25C6.24947 45.3318 10.4823 34.8387 18.0586 26.9769C25.6348 19.1151 35.9642 14.4971 46.875 14.0939V67.1875H6.25V56.25ZM50 67.1875V62.9956C51.1462 64.6233 52.5642 66.0413 54.1919 67.1875H50ZM50.0889 54.6875H65.625V67.1875H64.0625C60.6049 67.183 57.2698 65.9065 54.6929 63.6012C52.1159 61.296 50.4771 58.1232 50.0889 54.6875ZM93.75 67.1875H80.4348C86.192 64.2999 90.8624 59.6296 93.75 53.8723V67.1875ZM80.4348 14.0625H93.75V27.3777C90.8624 21.6205 86.192 16.9501 80.4348 14.0625Z" fill="white"/>
<path d="M53.125 73.4375H50C49.5856 73.4375 49.1882 73.6021 48.8952 73.8952C48.6021 74.1882 48.4375 74.5856 48.4375 75V79.6875H46.875C46.4606 79.6875 46.0632 79.5229 45.7701 79.2299C45.4771 78.9368 45.3125 78.5394 45.3125 78.125C45.3125 77.7106 45.4771 77.3132 45.7701 77.0201C46.0632 76.7271 46.4606 76.5625 46.875 76.5625V73.4375C45.6318 73.4375 44.4395 73.9314 43.5604 74.8104C42.6814 75.6895 42.1875 76.8818 42.1875 78.125C42.1875 79.3682 42.6814 80.5605 43.5604 81.4396C44.4395 82.3186 45.6318 82.8125 46.875 82.8125H48.4375V87.5H51.5625V82.8125H53.125C54.3682 82.8125 55.5605 82.3186 56.4396 81.4396C57.3186 80.5605 57.8125 79.3682 57.8125 78.125C57.8125 76.8818 57.3186 75.6895 56.4396 74.8104C55.5605 73.9314 54.3682 73.4375 53.125 73.4375ZM53.125 79.6875H51.5625V76.5625H53.125C53.5394 76.5625 53.9368 76.7271 54.2299 77.0201C54.5229 77.3132 54.6875 77.7106 54.6875 78.125C54.6875 78.5394 54.5229 78.9368 54.2299 79.2299C53.9368 79.5229 53.5394 79.6875 53.125 79.6875Z" fill="white"/>
<path d="M6.25 73.4375H3.125V78.125C3.12502 78.5394 3.28965 78.9368 3.58267 79.2298C3.87569 79.5229 4.27311 79.6875 4.6875 79.6875H39.0625V76.5625H6.25V73.4375Z" fill="white"/>
<path d="M93.75 76.5625H60.9375V79.6875H95.3125C95.7269 79.6875 96.1243 79.5229 96.4173 79.2298C96.7104 78.9368 96.875 78.5394 96.875 78.125V73.4375H93.75V76.5625Z" fill="white"/>
</svg>
