<svg width="100" height="100" viewBox="0 0 100 100" fill="none" xmlns="http://www.w3.org/2000/svg">
<path d="M100 96.6665H0V99.9998H100V96.6665Z" fill="white"/>
<path d="M6.66667 93.3333H23.3333C24.2537 93.3333 25 92.5871 25 91.6667V61.6667C25 60.7462 24.2537 60 23.3333 60H6.66667C5.74625 60 5 60.7462 5 61.6667V91.6667C5 92.5871 5.74625 93.3333 6.66667 93.3333ZM8.33333 63.3333H21.6667V90H8.33333V63.3333Z" fill="white"/>
<path d="M53.3333 93.3333H70C70.9204 93.3333 71.6666 92.5871 71.6666 91.6667V41.6667C71.6666 40.7462 70.9204 40 70 40H53.3333C52.4129 40 51.6666 40.7462 51.6666 41.6667V91.6667C51.6666 92.5871 52.4129 93.3333 53.3333 93.3333ZM55 43.3333H68.3333V90H55V43.3333Z" fill="white"/>
<path d="M30 93.3333H46.6667C47.5871 93.3333 48.3334 92.5871 48.3334 91.6667V21.6667C48.3334 20.7462 47.5871 20 46.6667 20H30C29.0796 20 28.3334 20.7462 28.3334 21.6667V91.6667C28.3334 92.5871 29.0796 93.3333 30 93.3333ZM31.6667 23.3333H45V90H31.6667V23.3333Z" fill="white"/>
<path d="M76.6667 93.3333H93.3333C94.2537 93.3333 95 92.5871 95 91.6667V1.66667C95 0.74625 94.2537 0 93.3333 0H76.6667C75.7462 0 75 0.74625 75 1.66667V91.6667C75 92.5871 75.7462 93.3333 76.6667 93.3333ZM78.3333 3.33333H91.6667V90H78.3333V3.33333Z" fill="white"/>
</svg>
