<svg width="100" height="100" viewBox="0 0 100 100" fill="none" xmlns="http://www.w3.org/2000/svg">
<path d="M89.3302 19.1283H92.42C93.4978 19.1283 94.3719 18.2542 94.3719 17.1764C94.3719 16.0986 93.4978 15.2246 92.42 15.2246H85.003C83.9252 15.2246 83.0512 16.0986 83.0512 17.1764V24.5934C83.0512 25.6712 83.9252 26.5453 85.003 26.5453C86.0808 26.5453 86.9548 25.6712 86.9548 24.5934V22.4458C92.8771 30.3744 96.0963 39.9945 96.0963 50C96.0963 75.4177 75.4177 96.0963 50 96.0963C24.5823 96.0963 3.90369 75.4177 3.90369 50C3.90369 24.5823 24.5823 3.90369 50 3.90369C51.8798 3.90369 53.7717 4.01787 55.6237 4.24292C56.6923 4.37213 57.6668 3.61111 57.7968 2.54091C57.927 1.47091 57.165 0.49772 56.0948 0.367727C54.0872 0.123747 52.0368 0 50 0C36.6445 0 24.0883 5.20088 14.6447 14.6447C5.20088 24.0883 0 36.6445 0 50C0 63.3555 5.20088 75.9117 14.6447 85.3553C24.0883 94.7991 36.6445 100 50 100C63.3555 100 75.9117 94.7991 85.3553 85.3553C94.7991 75.9117 100 63.3555 100 50C100 38.7299 96.2349 27.9104 89.3302 19.1283Z" fill="white"/>
<path d="M21.1721 29.4755C20.2612 28.8989 19.0556 29.1702 18.4788 30.0806C14.0229 37.1182 12.0504 45.5817 12.9246 53.9124C13.8117 62.3666 17.6168 70.3391 23.6391 76.3615C30.9068 83.6292 40.4534 87.2632 50.0003 87.2632C59.5471 87.2632 69.0936 83.6294 76.3615 76.3615C90.8971 61.826 90.8971 38.1747 76.3615 23.6393C70.3484 17.6264 62.389 13.8227 53.9489 12.9288C45.6336 12.0475 37.1792 14.0046 30.1446 18.4386C29.2325 19.0134 28.9594 20.2187 29.534 21.1306C30.1088 22.0427 31.3141 22.3158 32.226 21.7411C45.4864 13.3833 62.5001 15.2987 73.601 26.3996C86.6145 39.4131 86.6145 60.5875 73.601 73.601C60.5877 86.6148 39.4129 86.6148 26.3996 73.601C15.4521 62.6535 13.508 45.2288 21.7772 32.1691C22.3536 31.2581 22.0829 30.0523 21.1721 29.4755Z" fill="white"/>
<path d="M75.3741 51.9833H77.7811C78.8589 51.9833 79.733 51.1092 79.733 50.0314C79.733 48.9536 78.8589 48.0796 77.7811 48.0796H75.3741C74.2963 48.0796 73.4222 48.9536 73.4222 50.0314C73.4222 51.1092 74.2961 51.9833 75.3741 51.9833Z" fill="white"/>
<path d="M20.2668 49.9684C20.2668 51.0463 21.1409 51.9203 22.2187 51.9203H24.6257C25.7035 51.9203 26.5775 51.0463 26.5775 49.9684C26.5775 48.8906 25.7035 48.0166 24.6257 48.0166H22.2187C21.1409 48.0166 20.2668 48.8904 20.2668 49.9684Z" fill="white"/>
<path d="M51.9834 24.6255V22.2184C51.9834 21.1406 51.1094 20.2666 50.0316 20.2666C48.9538 20.2666 48.0798 21.1406 48.0798 22.2184V24.6255C48.0798 25.7033 48.9538 26.5773 50.0316 26.5773C51.1094 26.5773 51.9834 25.7033 51.9834 24.6255Z" fill="white"/>
<path d="M48.0165 75.3742V77.7812C48.0165 78.859 48.8905 79.7331 49.9683 79.7331C51.0461 79.7331 51.9202 78.859 51.9202 77.7812V75.3742C51.9202 74.2964 51.0461 73.4224 49.9683 73.4224C48.8905 73.4224 48.0165 74.2962 48.0165 75.3742Z" fill="white"/>
<path d="M40.2167 37.4561C39.4543 36.6941 38.2188 36.6941 37.4562 37.4561C36.694 38.2183 36.694 39.4543 37.4562 40.2166L44.0712 46.8316C43.5643 47.7763 43.276 48.8551 43.276 50.0001C43.276 53.7078 46.2924 56.7242 50.0001 56.7242C53.7079 56.7242 56.7243 53.7078 56.7243 50.0001C56.7243 48.8551 56.4358 47.7763 55.9291 46.8316L69.2764 33.4843C70.0386 32.7221 70.0386 31.4862 69.2764 30.7238C68.514 29.9618 67.2785 29.9618 66.5159 30.7238L53.1686 44.0711C52.2239 43.5642 51.1451 43.276 50.0001 43.276C48.8552 43.276 47.7764 43.5644 46.8317 44.0711L40.2167 37.4561ZM52.8206 50.0001C52.8206 51.5553 51.5554 52.8205 50.0001 52.8205C48.4449 52.8205 47.1797 51.5553 47.1797 50.0001C47.1797 48.4448 48.4449 47.1796 50.0001 47.1796C51.5554 47.1796 52.8206 48.4448 52.8206 50.0001Z" fill="white"/>
<path d="M26.3982 26.3982C26.7632 26.0352 26.9718 25.5316 26.9718 25.0182C26.9718 24.5049 26.7632 24.0033 26.3982 23.6383C26.0352 23.2754 25.5333 23.0664 25.0182 23.0664C24.5049 23.0664 24.0013 23.2753 23.6383 23.6383C23.2754 24.0013 23.0664 24.5049 23.0664 25.0182C23.0664 25.5335 23.2753 26.0352 23.6383 26.3982C24.0013 26.761 24.5049 26.9701 25.0182 26.9701C25.5333 26.9701 26.0352 26.761 26.3982 26.3982Z" fill="white"/>
<path d="M63.5206 5.83191C64.0361 5.83191 64.5396 5.62482 64.9025 5.26002C65.2655 4.89698 65.4746 4.39516 65.4746 3.88007C65.4746 3.36673 65.2657 2.86316 64.9025 2.50011C64.5396 2.13727 64.0361 1.92822 63.5206 1.92822C63.0072 1.92822 62.5037 2.13707 62.1408 2.50011C61.7778 2.86316 61.5687 3.36673 61.5687 3.88007C61.5687 4.39535 61.7776 4.89698 62.1408 5.26002C62.5037 5.62482 63.0072 5.83191 63.5206 5.83191Z" fill="white"/>
</svg>
