<svg width="100" height="104" viewBox="0 0 100 104" fill="none" xmlns="http://www.w3.org/2000/svg">
<g clip-path="url(#clip0)">
<path d="M25 104H80C83.6819 104 86.6667 100.896 86.6667 97.0667V27.7333C86.6553 24.5814 84.6012 21.8341 81.6667 21.0461V6.93333C81.6667 3.10416 78.6819 0 75 0H25C18.5598 0.00764164 13.3407 5.43545 13.3334 12.1333V91.8667C13.3407 98.5646 18.5598 103.992 25 104ZM83.3334 27.7333V97.0667C83.3334 98.9813 81.841 100.533 80 100.533H26.6667V24.2667H80C81.841 24.2667 83.3334 25.8187 83.3334 27.7333ZM25 3.46667H75C76.841 3.46667 78.3334 5.01875 78.3334 6.93333H25C24.0796 6.93333 23.3334 7.70937 23.3334 8.66667C23.3334 9.62396 24.0796 10.4 25 10.4H78.3334V13.8667H25C24.0796 13.8667 23.3334 14.6427 23.3334 15.6C23.3334 16.5573 24.0796 17.3333 25 17.3333H78.3334V20.8H25C20.3977 20.8 16.6667 16.9198 16.6667 12.1333C16.6667 7.34687 20.3977 3.46667 25 3.46667ZM16.6667 20.6076C18.4558 22.5122 20.7991 23.7497 23.3334 24.128V100.36C19.456 99.5307 16.6717 95.9835 16.6667 91.8667V20.6076Z" fill="white"/>
<path d="M66.6668 83.2H65.0001V75.9356C65.0844 71.4101 66.4452 67.0102 68.9135 63.2822C70.7412 60.4097 71.7001 57.0338 71.6668 53.5894C71.5275 44.283 64.3977 36.7239 55.4535 36.4C49.2525 36.2249 43.4711 39.646 40.4478 45.2794C37.4246 50.9128 37.6599 57.8263 41.0585 63.2233C43.5364 66.9709 44.9065 71.3902 45.0001 75.9373V83.2H43.3335C42.413 83.2 41.6668 83.976 41.6668 84.9333C41.6668 85.8906 42.413 86.6666 43.3335 86.6666H45.5835C46.9901 90.8215 50.7646 93.6011 55.0001 93.6011C59.2356 93.6011 63.0101 90.8215 64.4168 86.6666H66.6668C67.5873 86.6666 68.3335 85.8906 68.3335 84.9333C68.3335 83.976 67.5873 83.2 66.6668 83.2ZM43.8451 61.327C41.1247 57.0085 40.9364 51.4756 43.3566 46.9679C45.7767 42.4601 50.4044 39.7239 55.3668 39.8666C62.5206 40.127 68.2225 46.1736 68.3335 53.6172C68.3593 56.3686 67.5931 59.0651 66.1335 61.36C63.3017 65.6575 61.7483 70.7265 61.6668 75.9356V78H56.6668V67.4613C60.5651 66.8252 61.6668 63.9946 61.6668 62.4C61.6642 61.4701 60.9458 60.7137 60.0518 60.6996C59.1612 60.7202 58.4249 61.4279 58.3351 62.3497C58.3151 62.6478 58.0685 64.1333 55.0018 64.1333C51.9585 64.1333 51.6901 62.6704 51.6685 62.3584C51.6574 61.4006 50.9019 60.6335 49.981 60.645C49.06 60.6565 48.3224 61.4422 48.3335 62.4C48.5158 65.168 50.6682 67.352 53.3335 67.4734V78H48.3335V75.9373C48.2384 70.7164 46.6783 65.6382 43.8451 61.327ZM55.0001 90.1333C51.3182 90.1333 48.3335 87.0291 48.3335 83.2V81.4666H61.6668V83.2C61.6668 87.0291 58.682 90.1333 55.0001 90.1333Z" fill="white"/>
<path d="M33.3333 52H31.6666C30.7461 52 29.9999 52.776 29.9999 53.7333C29.9999 54.6906 30.7461 55.4667 31.6666 55.4667H33.3333C34.2537 55.4667 34.9999 54.6906 34.9999 53.7333C34.9999 52.776 34.2537 52 33.3333 52Z" fill="white"/>
<path d="M78.3333 52H76.6667C75.7462 52 75 52.776 75 53.7333C75 54.6906 75.7462 55.4667 76.6667 55.4667H78.3333C79.2538 55.4667 80 54.6906 80 53.7333C80 52.776 79.2538 52 78.3333 52Z" fill="white"/>
<path d="M38.4999 39.026C39.1511 39.7033 40.207 39.7033 40.8582 39.026C41.5094 38.3487 41.5094 37.2507 40.8582 36.5734L39.6799 35.3479C39.0259 34.691 37.9864 34.7004 37.3435 35.369C36.7006 36.0376 36.6916 37.1187 37.3232 37.7988L38.4999 39.026Z" fill="white"/>
<path d="M71.5002 68.4406C70.8489 67.7633 69.7931 67.7633 69.1418 68.4406C68.4906 69.1179 68.4906 70.216 69.1418 70.8932L70.3202 72.1187C70.9741 72.7756 72.0136 72.7662 72.6565 72.0976C73.2994 71.429 73.3084 70.3479 72.6768 69.6678L71.5002 68.4406Z" fill="white"/>
<path d="M38.5001 68.4407L37.3218 69.6661C36.8885 70.1013 36.7148 70.7458 36.8673 71.3518C37.0198 71.9578 37.4749 72.4311 38.0576 72.5897C38.6403 72.7484 39.26 72.5677 39.6784 72.1171L40.8568 70.8916C41.4884 70.2115 41.4794 69.1304 40.8365 68.4618C40.1936 67.7932 39.1541 67.7838 38.5001 68.4407Z" fill="white"/>
<path d="M70.3201 35.3498L69.1418 36.5753C68.7208 37.0134 68.5565 37.6519 68.7109 38.2501C68.8652 38.8483 69.3147 39.3155 69.8901 39.4756C70.4654 39.6357 71.0791 39.4644 71.5001 39.0262L72.6785 37.8008C73.3101 37.1207 73.301 36.0396 72.6582 35.371C72.0153 34.7024 70.9757 34.693 70.3218 35.3498H70.3201Z" fill="white"/>
</g>
<defs>
<clipPath id="clip0">
<rect width="100" height="104" fill="white"/>
</clipPath>
</defs>
</svg>
