<svg width="100" height="100" viewBox="0 0 100 100" fill="none" xmlns="http://www.w3.org/2000/svg">
<g clip-path="url(#clip0)">
<path d="M99.2107 24.598C98.2904 22.5451 96.6309 20.9654 94.5379 20.1498C90.7609 18.6783 85.4861 19.8463 82.7398 25.8482C82.3475 26.3223 81.9775 26.7367 81.6475 27.1062C80.0523 28.8928 78.7926 30.3037 79.8895 33.5166C79.9865 33.7975 80.7699 36.7785 80.8934 37.2234L73.9748 52.5953L58.2916 52.6924V49.9293C60.0152 48.8353 61.5686 47.5586 62.8547 46.1566C65.1119 43.6961 66.4621 40.991 66.8203 38.2555H69.5711C71.7775 38.2555 73.5727 36.4604 73.5727 34.2539V26.7223C73.5727 26.7217 73.5727 26.7213 73.5727 26.7207C73.5709 19.2463 70.9012 12.8496 65.8527 8.22285C61.3111 4.05254 55.2422 1.75586 48.7639 1.75586C42.2855 1.75586 36.2164 4.05254 31.6756 8.22207C26.7461 12.74 24.0859 18.9443 23.9607 26.191C23.9375 26.3654 23.9211 26.542 23.9211 26.7225V33.6324C23.9211 35.8389 25.7137 37.634 27.9168 37.634H30.609C30.8313 40.5803 32.2094 43.51 34.6359 46.1562C35.9686 47.6098 37.5873 48.9297 39.3869 50.0498V52.7016H36.7809C30.8369 52.7016 24.967 54.8617 20.2529 58.7842C15.7521 62.5289 12.834 67.4889 11.9355 72.8658H8.64336C6.39395 72.8658 4.56367 74.6961 4.56367 76.9457V80.6381H2.48945C1.1168 80.6381 0 81.7551 0 83.1277V95.7551C0 97.1277 1.1168 98.2445 2.48945 98.2445H94.7748C96.1506 98.2445 97.2699 97.1277 97.2699 95.7551V83.1277C97.2699 81.7551 96.1506 80.6383 94.7748 80.6383H92.7008V76.9459C92.7008 74.6963 90.8705 72.866 88.6211 72.866H75.9L82.8766 68.6158C83.1328 68.4598 83.3352 68.2285 83.4557 67.9537L87.4481 58.86C87.7732 58.1191 87.4363 57.2551 86.6957 56.9299C85.9553 56.6047 85.0908 56.9416 84.7656 57.6822L80.9586 66.3539L70.2691 72.8662H66.9791C64.7297 72.8662 62.8994 74.6965 62.8994 76.9461V80.6385H34.3652V76.9461C34.3652 75.2131 33.2773 73.733 31.7502 73.1428V69.3754C31.7502 68.5664 31.0945 67.9105 30.2854 67.9105C29.4762 67.9105 28.8205 68.5664 28.8205 69.3754V72.8662H14.9135C16.8008 63.2256 26.2574 55.6314 36.7809 55.6314H39.4848C40.1422 60.5951 44.0871 64.4228 48.8422 64.4228C53.5971 64.4228 57.5412 60.5908 58.1949 55.623L74.9338 55.5193C75.5068 55.5156 76.0252 55.1783 76.2604 54.6557L83.234 39.1615L91.6055 42.1008L87.6383 51.1361C87.3131 51.8768 87.65 52.741 88.3906 53.0662C89.1318 53.3914 89.9957 53.0545 90.3209 52.3139C90.3209 52.3139 99.3266 32.2133 99.3426 32.166C100.262 29.458 100.216 26.8412 99.2107 24.598ZM65.8289 76.9457C65.8289 76.3115 66.3449 75.7955 66.9791 75.7955H88.6211C89.2553 75.7955 89.7713 76.3115 89.7713 76.9457V80.6381H65.8289V76.9457ZM94.3404 83.5678V95.3148H70.9668L69.3895 90.1906C68.7711 88.2303 67.3723 88.0185 66.7996 88.0185H52.7785C51.9693 88.0185 51.3137 88.6744 51.3137 89.4834C51.3137 90.2924 51.9693 90.9482 52.7785 90.9482H66.5523C66.5648 90.9799 66.5785 91.0176 66.5926 91.0623L67.9016 95.3148H29.3629L30.6688 91.0721C30.6842 91.023 30.6988 90.9822 30.7125 90.9482H45.1576C45.9668 90.9482 46.6225 90.2924 46.6225 89.4834C46.6225 88.6744 45.9668 88.0185 45.1576 88.0185H30.4645C29.8918 88.0185 28.4932 88.2301 27.8719 90.2004L26.2975 95.3148H2.92969V83.5678H94.3404ZM30.2855 75.7955C30.9197 75.7955 31.4357 76.3115 31.4357 76.9457V80.6381H7.49336V76.9457C7.49336 76.3115 8.00938 75.7955 8.64355 75.7955H30.2855ZM70.6434 34.2539C70.6434 34.835 70.1523 35.3258 69.5715 35.3258H66.9207V27.4002C66.9207 27.3984 66.9207 27.3969 66.9207 27.3951C66.9207 27.3949 66.9207 27.3947 66.9207 27.3945C66.9207 27.3943 66.9207 27.3939 66.9207 27.3937C66.9297 26.8055 66.9127 26.2266 66.8746 25.6562H69.5717C70.1627 25.6562 70.6436 26.1346 70.6436 26.7225V34.2539H70.6434ZM30.5732 27.4008V34.7041H27.9168C27.3289 34.7041 26.8508 34.2232 26.8508 33.6322V26.7223C26.8508 26.1344 27.3289 25.6561 27.9168 25.6561H30.6186C30.5805 26.2289 30.5639 26.8102 30.5732 27.4008ZM27.9168 22.7266C27.6639 22.7266 27.4174 22.7527 27.1775 22.798C27.7898 18.7859 29.5086 14.1824 33.6561 10.3811C37.6559 6.7084 43.0215 4.68574 48.7641 4.68574C54.5066 4.68574 59.8719 6.7084 63.8727 10.382C68.0217 14.1846 69.7396 18.7906 70.351 22.8041C70.0986 22.7541 69.8383 22.7268 69.5715 22.7268H66.4551C65.7629 19.6324 64.3094 16.8937 62.1436 14.6607C58.7977 11.2111 53.9227 9.18945 48.7684 9.11426C48.7543 9.11406 48.7398 9.11406 48.7256 9.11426C43.5668 9.18945 38.6895 11.2121 35.3438 14.6633C33.1795 16.8959 31.7273 19.6336 31.0365 22.7268H27.9168V22.7266ZM51.0578 27.5477C50.0121 27.3975 48.5326 27.0285 46.7861 26.3082C43.851 25.0977 41.6531 23.4939 41.0502 22.1232C40.7953 21.5439 40.1965 21.1926 39.568 21.2551C38.9381 21.316 38.4188 21.7746 38.2801 22.392C37.6832 25.0484 36.0361 25.3664 33.5887 25.3094C33.9229 21.9314 35.235 18.984 37.4471 16.7021C40.2506 13.8102 44.3684 12.1129 48.7469 12.0436C53.1211 12.1127 57.2365 13.8094 60.0404 16.7C62.3723 19.1043 63.709 22.2463 63.9521 25.8537C59.1035 25.4273 55.0295 23.1723 54.0383 22.1812C53.4592 21.6025 52.548 21.5535 51.8715 22.0643C50.8348 22.8469 50.0982 25.2768 51.0578 27.5477ZM55.3623 54.1664C55.3623 58.2062 52.4375 61.493 48.8424 61.493C45.2439 61.493 42.3166 58.2062 42.3166 54.1664V51.6186C42.8853 51.8779 43.4637 52.1195 44.0516 52.3375C45.7824 52.9762 47.2744 53.2736 48.7473 53.2736C50.2225 53.2736 51.7131 52.976 53.4393 52.3367C54.0918 52.0947 54.7336 51.8252 55.3625 51.5324V54.1664H55.3623ZM52.4211 49.5896C51.0314 50.1043 49.8639 50.3441 48.7471 50.3441C47.6313 50.3441 46.4615 50.1043 45.0678 49.5898C38.2586 47.0654 33.5029 41.8021 33.5029 36.7906V28.2393C35.4273 28.2885 38.3687 28.1328 40.0764 25.6088C42.127 27.5537 45.3137 29.0307 47.9215 29.8232C49.1732 30.2035 50.6885 30.5551 52.0115 30.5551C52.8465 30.5551 53.6053 30.415 54.1729 30.0541C54.6016 29.7822 54.8764 29.366 54.9463 28.8818C55.0639 28.0676 54.5682 27.5012 54.2398 27.1264C54.1025 26.9695 53.9605 26.8074 53.885 26.6711C53.6543 26.2566 53.5635 25.8369 53.5471 25.465C55.9092 26.9531 59.8518 28.4768 63.991 28.7932V36.7906C63.991 41.801 59.2332 47.0641 52.4211 49.5896ZM96.5914 31.1551L92.807 39.4176L83.6516 36.2029C83.5449 35.8105 83.4203 35.3365 83.2975 34.8689C82.9832 33.6727 82.7832 32.9203 82.6607 32.5654C82.1188 30.9777 82.3471 30.7219 83.833 29.0574C84.2172 28.6271 84.6525 28.1396 85.1309 27.5529C85.2139 27.4512 85.2828 27.3387 85.3359 27.2186C87.29 22.792 90.8316 21.8498 93.4742 22.8793C96.0662 23.8896 98.0266 26.8373 96.5914 31.1551Z" fill="white"/>
<path d="M41.4507 33.0806C40.6416 33.0806 39.9859 33.7364 39.9859 34.5454V35.6317C39.9859 36.4407 40.6416 37.0966 41.4507 37.0966C42.2599 37.0966 42.9156 36.4407 42.9156 35.6317V34.5454C42.9156 33.7364 42.2597 33.0806 41.4507 33.0806Z" fill="white"/>
<path d="M55.9536 33.0806C55.1444 33.0806 54.4887 33.7364 54.4887 34.5454V35.6317C54.4887 36.4407 55.1444 37.0966 55.9536 37.0966C56.7627 37.0966 57.4184 36.4407 57.4184 35.6317V34.5454C57.4184 33.7364 56.7625 33.0806 55.9536 33.0806Z" fill="white"/>
<path d="M50.7561 41.8863L48.8422 42.7365L46.9281 41.8863C46.1887 41.5578 45.3232 41.891 44.9947 42.6304C44.6662 43.3697 44.9994 44.2353 45.7389 44.5636L48.2363 45.673C48.6205 45.8377 49.0516 45.8494 49.4371 45.6781L51.9457 44.5638C52.685 44.2353 53.0182 43.3699 52.6899 42.6304C52.3611 41.891 51.4953 41.5578 50.7561 41.8863Z" fill="white"/>
<path d="M12.2496 91.4131H18.5826C19.3918 91.4131 20.0474 90.7572 20.0474 89.9482C20.0474 89.1393 19.3918 88.4834 18.5826 88.4834H12.2496C11.4404 88.4834 10.7847 89.1393 10.7847 89.9482C10.7847 90.7572 11.4404 91.4131 12.2496 91.4131Z" fill="white"/>
<path d="M78.682 91.4131H85.0148C85.824 91.4131 86.4796 90.7572 86.4796 89.9482C86.4796 89.1393 85.824 88.4834 85.0148 88.4834H78.682C77.8728 88.4834 77.2171 89.1393 77.2171 89.9482C77.2171 90.7572 77.8728 91.4131 78.682 91.4131Z" fill="white"/>
</g>
<defs>
<clipPath id="clip0">
<rect width="100" height="100" fill="white"/>
</clipPath>
</defs>
</svg>
