<svg width="100" height="100" viewBox="0 0 100 100" fill="none" xmlns="http://www.w3.org/2000/svg">
<g clip-path="url(#clip0)">
<path d="M86.5809 49.4219H57.99C57.1805 49.4219 56.5244 50.0779 56.5244 50.8873C56.5244 51.6969 57.1805 52.3529 57.99 52.3529H86.5809C87.3904 52.3529 88.0463 51.6969 88.0463 50.8873C88.0465 50.0779 87.3904 49.4219 86.5809 49.4219Z" fill="white"/>
<path d="M86.5809 56.7236H81.4973C80.6879 56.7236 80.0319 57.3797 80.0319 58.1891C80.0319 58.9984 80.6879 59.6545 81.4973 59.6545H86.5809C87.3905 59.6545 88.0463 58.9984 88.0463 58.1891C88.0463 57.3797 87.3905 56.7236 86.5809 56.7236Z" fill="white"/>
<path d="M54.6963 59.6545H74.6805C75.49 59.6545 76.1461 58.9984 76.1461 58.1891C76.1461 57.3797 75.49 56.7236 74.6805 56.7236H54.6963C53.8867 56.7236 53.2307 57.3797 53.2307 58.1891C53.2307 58.9984 53.8869 59.6545 54.6963 59.6545Z" fill="white"/>
<path d="M86.5808 64.0249H54.6963C53.8867 64.0249 53.2307 64.681 53.2307 65.4903C53.2307 66.2997 53.8867 66.9558 54.6963 66.9558H86.5808C87.3904 66.9558 88.0463 66.2997 88.0463 65.4903C88.0463 64.681 87.3904 64.0249 86.5808 64.0249Z" fill="white"/>
<path d="M86.5809 71.3262H70.6387C69.8291 71.3262 69.173 71.9822 69.173 72.7916C69.173 73.601 69.8291 74.257 70.6387 74.257H86.5811C87.3906 74.257 88.0465 73.601 88.0465 72.7916C88.0465 71.9822 87.3904 71.3262 86.5809 71.3262Z" fill="white"/>
<path d="M54.6963 71.3262C53.8867 71.3262 53.2307 71.9822 53.2307 72.7916C53.2307 73.601 53.8867 74.257 54.6963 74.257H63.8307C64.6402 74.257 65.2961 73.601 65.2961 72.7916C65.2961 71.9822 64.64 71.3262 63.8307 71.3262H54.6963Z" fill="white"/>
<path d="M98.6027 53.0498C98.355 52.2791 97.5291 51.8549 96.759 52.1033C95.9884 52.351 95.5646 53.1766 95.8125 53.9471C96.65 56.5516 97.0726 59.2684 97.0689 62.0215C97.055 71.8074 91.6713 80.742 83.0193 85.3383C82.1787 85.7846 81.6564 86.6541 81.6564 87.6078V93.5703L76.0281 88.7861C75.4777 88.3186 74.748 88.1043 74.0273 88.1965C72.9048 88.3404 71.7648 88.4133 70.6384 88.4133C56.0648 88.4133 44.2082 76.5566 44.2082 61.983C44.2082 60.4781 44.3361 58.9939 44.5812 57.54C51.3287 53.4334 56.2963 46.6832 58.0398 38.7391C61.8633 36.6594 66.1638 35.5525 70.6367 35.5525C70.7056 35.5525 70.7754 35.5527 70.8443 35.5533C79.9123 35.6223 88.2195 40.2904 93.0658 48.0412C93.4949 48.7273 94.3992 48.9354 95.0855 48.5068C95.7717 48.0775 95.9802 47.1734 95.5511 46.4871C90.1703 37.882 80.9426 32.6988 70.8668 32.6223C66.5597 32.5883 62.3966 33.4771 58.5927 35.1906C58.6773 34.2846 58.7226 33.3674 58.7226 32.4395C58.7226 24.5545 55.6402 17.1531 50.0433 11.5986C44.5015 6.09844 37.1656 3.07812 29.3634 3.07812C29.2869 3.07812 29.2099 3.07832 29.1334 3.07891C20.5386 3.14453 12.4199 6.98848 6.85895 13.6254C6.33923 14.2457 6.42067 15.1701 7.04118 15.6898C7.66169 16.21 8.5861 16.1281 9.10563 15.5076C14.1138 9.53047 21.4216 6.06875 29.1554 6.00996C29.225 6.00938 29.2935 6.00918 29.3627 6.00918C36.3857 6.00918 42.9902 8.72832 47.9785 13.6789C53.0168 18.6791 55.7916 25.3416 55.7916 32.4395C55.7916 47.0131 43.9349 58.8697 29.3613 58.8697C28.2338 58.8697 27.0935 58.7969 25.972 58.6529C25.2511 58.5606 24.5209 58.7756 23.9713 59.243L18.3433 64.0268V58.0645C18.3433 57.1109 17.8211 56.2414 16.9806 55.7951C8.32849 51.1986 2.94489 42.2641 2.93083 32.4781C2.92497 28.4002 3.83415 24.482 5.63278 20.832C5.99059 20.1059 5.69216 19.2273 4.96599 18.8695C4.23962 18.5117 3.3613 18.8102 3.00349 19.5363C1.00407 23.5941 -0.00647571 27.95 -3.03983e-05 32.4824C0.0153993 43.2803 5.91462 53.1445 15.4123 58.2799V64.8012C15.4123 65.8158 15.9843 66.7107 16.9054 67.1367C17.2562 67.2988 17.6261 67.3785 17.9925 67.3785C18.5875 67.3785 19.1732 67.1684 19.6515 66.7617L25.7488 61.5791C26.9449 61.7262 28.1595 61.8008 29.3613 61.8008C33.6515 61.8008 37.7295 60.8756 41.4068 59.2148C41.3218 60.1293 41.2773 61.0525 41.2773 61.9828C41.2773 78.1729 54.4486 91.3441 70.6386 91.3441C71.8388 91.3441 73.0535 91.2695 74.2513 91.1223L80.3486 96.3051C80.8269 96.7117 81.4125 96.9219 82.0074 96.9217C82.3738 96.9217 82.7439 96.8422 83.0949 96.6799C84.0156 96.2539 84.5877 95.3592 84.5877 94.3445V87.8232C94.0849 82.6881 99.9845 72.8236 100 62.0258C100.004 58.966 99.5341 55.9461 98.6027 53.0498Z" fill="white"/>
<path d="M26.9374 45.5732C26.9374 46.9119 28.0226 47.9971 29.3613 47.9971C30.6999 47.9971 31.7851 46.9119 31.7851 45.5732C31.7851 44.2346 30.6999 43.1494 29.3613 43.1494C28.0226 43.1494 26.9374 44.2346 26.9374 45.5732Z" fill="white"/>
<path d="M32.9958 32.0107C36.4339 30.4812 38.5628 26.9277 38.2935 23.1684C37.9861 18.8816 34.5339 15.3326 30.263 14.9131C25.4532 14.4393 21.1575 17.8062 20.4915 22.5777C20.4345 22.9885 20.4054 23.4078 20.4054 23.8244C20.4054 24.634 21.0614 25.2898 21.8708 25.2898C22.6802 25.2898 23.3363 24.6338 23.3363 23.8244C23.3363 23.5426 23.356 23.259 23.3943 22.9822C23.8421 19.7742 26.7308 17.5137 29.9761 17.8301C32.8445 18.1119 35.163 20.4971 35.3697 23.3781C35.5511 25.9103 34.1183 28.3035 31.8042 29.333C29.4296 30.3893 27.8954 32.7223 27.8954 35.2764V38.1033C27.8954 38.9129 28.5515 39.5687 29.3609 39.5687C30.1704 39.5687 30.8265 38.9127 30.8265 38.1033V35.2764C30.8269 33.8785 31.6782 32.5971 32.9958 32.0107Z" fill="white"/>
</g>
<defs>
<clipPath id="clip0">
<rect width="100" height="100" fill="white"/>
</clipPath>
</defs>
</svg>
