<svg width="100" height="100" viewBox="0 0 100 100" fill="none" xmlns="http://www.w3.org/2000/svg">
<path d="M30.658 51.5702C31.4667 51.5702 32.1228 50.9148 32.1228 50.1053C32.1228 40.2596 40.1329 32.2495 49.9786 32.2495C50.7874 32.2495 51.4435 31.5941 51.4435 30.7847C51.4435 29.976 50.7874 29.3198 49.9786 29.3198C38.5178 29.3198 29.1931 38.6445 29.1931 50.1053C29.1931 50.9148 29.8485 51.5702 30.658 51.5702Z" fill="white"/>
<path d="M51.4434 22.5586C51.4434 21.7499 50.7881 21.0938 49.9786 21.0938C33.982 21.0938 20.967 34.1087 20.967 50.1053C20.967 50.9148 21.6232 51.5701 22.4319 51.5701C23.2406 51.5701 23.8967 50.9148 23.8967 50.1053C23.8967 35.7239 35.5972 24.0234 49.9786 24.0234C50.7881 24.0234 51.4434 23.3673 51.4434 22.5586Z" fill="white"/>
<path d="M92.3523 0H7.64771C3.43094 0 0 3.43094 0 7.64771V92.3523C0 96.5691 3.43094 100 7.64771 100H92.3523C96.5691 100 100 96.5691 100 92.3523V7.64771C100 3.43094 96.5691 0 92.3523 0ZM97.0703 92.3523C97.0703 94.9539 94.9539 97.0703 92.3523 97.0703H7.64771C5.04608 97.0703 2.92969 94.9539 2.92969 92.3523V7.64771C2.92969 5.04608 5.04608 2.92969 7.64771 2.92969H92.3523C94.9539 2.92969 97.0703 5.04608 97.0703 7.64771V92.3523Z" fill="white"/>
<path d="M50 62.1665C56.7108 62.1665 62.1704 56.7069 62.1704 49.9961C62.1704 43.2853 56.7108 37.825 50 37.825C43.2892 37.825 37.8296 43.2853 37.8296 49.9961C37.8296 56.7069 43.2892 62.1665 50 62.1665ZM50 40.7546C55.0957 40.7546 59.2407 44.9005 59.2407 49.9961C59.2407 55.0918 55.0957 59.2368 50 59.2368C44.9043 59.2368 40.7593 55.0918 40.7593 49.9961C40.7593 44.9005 44.9043 40.7546 50 40.7546Z" fill="white"/>
<path d="M50.0001 54.7775C52.6368 54.7775 54.7814 52.6321 54.7814 49.9962C54.7814 47.3595 52.6368 45.2148 50.0001 45.2148C47.3641 45.2148 45.2188 47.3595 45.2188 49.9962C45.2188 52.6321 47.3641 54.7775 50.0001 54.7775ZM50.0001 48.1445C51.0209 48.1445 51.8517 48.9754 51.8517 49.9962C51.8517 51.017 51.0209 51.8478 50.0001 51.8478C48.9793 51.8478 48.1484 51.017 48.1484 49.9962C48.1484 48.9754 48.9793 48.1445 50.0001 48.1445Z" fill="white"/>
<path d="M85.4494 8.99512C81.537 8.99512 78.3533 12.1781 78.3533 16.0912C78.3533 18.9751 80.0828 21.4631 82.5593 22.5716L76.3856 49.498C75.77 52.2332 74.6751 54.7837 73.1264 57.0977C71.5677 56.5415 69.7565 56.878 68.4984 58.1132L63.8246 62.7045C62.0706 64.4272 62.0454 67.2562 63.7682 69.011C64.6135 69.8708 65.7426 70.3446 66.9496 70.3446C68.1253 70.3446 69.2346 69.8907 70.0738 69.0667L74.7476 64.4753C76.2613 62.9891 76.4879 60.6782 75.4137 58.9455C77.2417 56.2745 78.528 53.3188 79.2429 50.1473L85.4234 23.1873H85.4494C89.3617 23.1873 92.5447 20.0043 92.5447 16.0912C92.5455 12.1781 89.3617 8.99512 85.4494 8.99512ZM72.6945 62.3856L68.0208 66.977C67.7331 67.2593 67.3524 67.4149 66.9488 67.4149C66.5353 67.4149 66.1478 67.2524 65.8578 66.9572C65.2673 66.356 65.2757 65.3855 65.8777 64.7942L70.5507 60.2036C70.8482 59.9114 71.2358 59.7657 71.6234 59.7657C72.0193 59.7657 72.4153 59.9183 72.7144 60.2227C73.3049 60.8246 73.2965 61.7943 72.6945 62.3856ZM85.4494 20.2569C85.3914 20.2569 85.3342 20.2561 85.2769 20.2538C84.8634 20.0715 84.3294 19.9555 83.8899 19.954C82.3625 19.3352 81.2837 17.8368 81.2837 16.0912C81.2837 13.7932 83.1522 11.9248 85.4494 11.9248C87.7466 11.9248 89.6158 13.7932 89.6158 16.0912C89.6158 18.3884 87.7466 20.2569 85.4494 20.2569Z" fill="white"/>
<path d="M12.1566 82.5439C9.20325 82.5439 6.80151 84.9464 6.80151 87.8998C6.80151 90.8524 9.20325 93.2549 12.1566 93.2549C15.1092 93.2549 17.5117 90.8524 17.5117 87.8998C17.5117 84.9464 15.1092 82.5439 12.1566 82.5439ZM12.1566 90.3252C10.8192 90.3252 9.7312 89.2372 9.7312 87.8998C9.7312 86.5616 10.8192 85.4736 12.1566 85.4736C13.494 85.4736 14.582 86.5616 14.582 87.8998C14.582 89.2372 13.494 90.3252 12.1566 90.3252Z" fill="white"/>
<path d="M25.2303 82.5439C22.2777 82.5439 19.8752 84.9464 19.8752 87.8998C19.8752 90.8524 22.2777 93.2549 25.2303 93.2549C28.1837 93.2549 30.5862 90.8524 30.5862 87.8998C30.5862 84.9464 28.1837 82.5439 25.2303 82.5439ZM25.2303 90.3252C23.8929 90.3252 22.8049 89.2372 22.8049 87.8998C22.8049 86.5616 23.8929 85.4736 25.2303 85.4736C26.5677 85.4736 27.6565 86.5616 27.6565 87.8998C27.6565 89.2372 26.5677 90.3252 25.2303 90.3252Z" fill="white"/>
<path d="M83.6959 37.7122C82.9253 37.9578 82.4996 38.7818 82.7453 39.5531C83.8172 42.9169 84.3604 46.4303 84.3604 49.9962C84.3604 68.9423 68.9467 84.3568 49.9999 84.3568C31.0538 84.3568 15.6394 68.9423 15.6394 49.9962C15.6394 31.0494 31.0531 15.6357 49.9999 15.6357C55.5045 15.6357 60.7619 16.8976 65.6272 19.3864C70.2689 21.7606 74.3796 25.2274 77.5153 29.4121C78.0005 30.0591 78.9184 30.1911 79.5661 29.7059C80.2131 29.2206 80.3451 28.3021 79.8598 27.6551C76.4579 23.1156 71.9985 19.3543 66.9616 16.7779C61.6797 14.0755 55.973 12.7061 49.9999 12.7061C29.4379 12.7061 12.7097 29.4343 12.7097 49.9962C12.7097 70.5582 29.4379 87.2864 49.9999 87.2864C70.5619 87.2864 87.2901 70.5582 87.2901 49.9962C87.2901 46.1281 86.7003 42.315 85.5361 38.6635C85.2912 37.893 84.4665 37.4673 83.6959 37.7122Z" fill="white"/>
</svg>
