<svg width="100" height="100" viewBox="0 0 100 100" fill="none" xmlns="http://www.w3.org/2000/svg">
<g clip-path="url(#clip0)">
<path d="M100 14.4074C100 10.0314 96.44 6.47129 92.064 6.47129H83.822V4.70059C83.822 2.10859 81.7134 0 79.1214 0H20.8794C18.2875 0 16.1791 2.10859 16.1791 4.70059V6.47129H7.93687C3.56089 6.47129 0.000732422 10.0314 0.000732422 14.4074V72.6502C0.000732422 77.0262 3.56089 80.5861 7.93687 80.5861H14.7695C15.5787 80.5861 16.2343 79.9303 16.2343 79.1213C16.2343 78.3123 15.5787 77.6564 14.7695 77.6564H7.93667C5.17612 77.6564 2.93022 75.4105 2.93022 72.6502V70.8787H97.0703V72.6502C97.0703 75.4107 94.8244 77.6564 92.0638 77.6564H20.6289C19.8197 77.6564 19.164 78.3123 19.164 79.1213C19.164 79.9303 19.8197 80.5861 20.6289 80.5861H37.2107L37.2109 90.5992H28.9134C27.2441 90.5992 25.8861 91.9572 25.8861 93.6266V96.9727C25.8861 98.642 27.2441 100 28.9134 100H58.3957C59.2048 100 59.8605 99.3441 59.8605 98.5352C59.8605 97.7262 59.2048 97.0703 58.3957 97.0703H28.9134C28.8597 97.0703 28.8158 97.0266 28.8158 96.9727V93.6266C28.8158 93.5727 28.8597 93.5289 28.9134 93.5289H71.0878C71.1415 93.5289 71.1855 93.5727 71.1855 93.6266V96.9727C71.1855 97.0266 71.1415 97.0703 71.0878 97.0703H64.2552C63.446 97.0703 62.7904 97.7262 62.7904 98.5352C62.7904 99.3441 63.446 100 64.2552 100H71.0878C72.7572 100 74.1152 98.642 74.1152 96.9727V93.6266C74.1152 91.9572 72.7572 90.5992 71.0878 90.5992H62.7904V80.5861H92.0642C96.4402 80.5861 100 77.026 100 72.6502V14.4074H100ZM51.7714 90.5992H48.2296V87.2098C48.2296 87.1254 48.2984 87.0568 48.3826 87.0568H51.6183C51.7027 87.0568 51.7712 87.1254 51.7712 87.2098V90.5992H51.7714ZM59.8605 90.5992H54.7011V87.2098C54.7011 85.51 53.3183 84.1271 51.6185 84.1271H48.3828C46.683 84.1271 45.3001 85.51 45.3001 87.2098V90.5992H40.1408L40.1406 80.5861H59.8607V90.5992H59.8605ZM90.5996 67.9488H83.822V15.8727H88.8289C89.8052 15.8727 90.5996 16.667 90.5996 17.6434V67.9488ZM16.1791 67.9488H9.40132V17.6434C9.40132 16.667 10.1957 15.8727 11.172 15.8727H16.1789V67.9488H16.1791ZM19.1087 51.4648H32.3574V67.9488H19.1087V51.4648ZM28.8156 24.1146C28.8156 21.3541 31.0615 19.1082 33.8222 19.1082C36.5828 19.1082 38.8287 21.3541 38.8287 24.1146C38.8287 26.8752 36.5826 29.1211 33.822 29.1211C31.0615 29.1211 28.8156 26.8752 28.8156 24.1146ZM33.822 32.0508C34.915 32.0508 35.9757 32.2619 36.9621 32.6691L34.9281 34.2965C34.2769 34.8176 33.3669 34.8176 32.7158 34.2965L30.6857 32.6725C31.6533 32.2727 32.7121 32.0508 33.822 32.0508ZM28.1078 34.3617L30.8859 36.584C31.7503 37.2756 32.7863 37.6215 33.8222 37.6215C34.8582 37.6215 35.8941 37.2758 36.7585 36.584L39.64 34.2787L42.6583 36.2969C43.4459 36.8219 44.4142 36.9566 45.3148 36.6656C46.2154 36.3752 46.9224 35.7004 47.2548 34.8143L47.447 34.3016L50.8083 35.4244L48.4234 41.7846C48.2326 42.2936 47.8261 42.6812 47.3085 42.8482C46.7998 43.0129 46.2287 42.9336 45.783 42.6361L44.9941 42.1104V40.293C44.9941 39.484 44.3384 38.8281 43.5292 38.8281C42.7201 38.8281 42.0644 39.484 42.0644 40.293V42.8906C42.0644 42.8975 42.0642 42.9043 42.0644 42.9113V48.5352H25.58V40.293C25.5798 37.9654 26.5511 35.8619 28.1078 34.3617ZM48.7662 30.7838C48.7722 30.7686 48.7781 30.7531 48.7833 30.7377L49.9605 27.5986C50.1267 27.1559 50.4552 26.8041 50.8861 26.6084C51.2218 26.4559 51.5884 26.4137 51.9433 26.4809L51.8148 26.9951C51.6187 27.7799 52.0958 28.5752 52.8806 28.7715C53 28.8014 53.1195 28.8156 53.2371 28.8156C53.2537 28.8156 53.2699 28.8121 53.2865 28.8115C53.2828 28.8219 53.2804 28.8322 53.2765 28.8426L51.8374 32.6801L48.4759 31.5572L48.7662 30.7838ZM55.8978 26.2754C55.7304 25.9068 55.5158 25.5701 55.2679 25.2631L57.8929 14.7627C58.089 13.9779 57.6119 13.1826 56.8271 12.9863C56.0419 12.79 55.247 13.2672 55.0505 14.0521L52.6548 23.6355C51.6585 23.4082 50.6207 23.5107 49.6742 23.941C49.1232 24.1914 48.6371 24.54 48.2296 24.9635V9.5541C48.2296 9.46973 48.2984 9.40117 48.3826 9.40117H74.2679C74.3523 9.40117 74.4208 9.46992 74.4208 9.5541V28.9682C74.4208 29.0525 74.3521 29.1213 74.2679 29.1213H56.2318C56.4203 28.1662 56.3085 27.1791 55.8978 26.2754ZM35.2869 51.4648H80.8921V67.9488H35.2869V51.4648ZM20.8794 2.92969H79.1214C80.0978 2.92969 80.8921 3.72402 80.8921 4.70059V48.5352H44.9941V45.515C45.5535 45.743 46.1525 45.8635 46.7654 45.8635C47.2562 45.8635 47.7416 45.7871 48.208 45.6365C49.5812 45.1936 50.6597 44.1646 51.1664 42.8133L55.2023 32.0506H74.2679C75.9677 32.0506 77.3505 30.6676 77.3505 28.9678V9.55371C77.3505 7.85391 75.9677 6.47109 74.2679 6.47109H48.3826C46.6828 6.47109 45.3 7.85391 45.3 9.55371V28.9678C45.3 29.5316 45.4535 30.0676 45.7304 30.535L44.5115 33.7855C44.505 33.8025 44.4855 33.8547 44.4154 33.8773C44.3447 33.8998 44.2984 33.8689 44.2851 33.8602L40.3957 31.2596C39.8871 30.8889 39.3535 30.5656 38.7998 30.2891C40.6023 28.833 41.7582 26.6066 41.7582 24.1143C41.7582 19.7383 38.1982 16.1781 33.822 16.1781C29.4459 16.1781 25.8857 19.7383 25.8857 24.1143C25.8857 26.6088 27.0435 28.8367 28.849 30.2928C28.3164 30.5588 27.8084 30.8662 27.3283 31.2105C27.2593 31.252 27.1929 31.2986 27.1306 31.352C24.4123 33.3916 22.6501 36.64 22.6501 40.2926V48.5348H19.1087V4.70059C19.1087 3.72402 19.9031 2.92969 20.8794 2.92969ZM2.93042 14.4074C2.93042 11.6469 5.17632 9.40098 7.93687 9.40098H16.1791V12.943H11.1722C8.58022 12.943 6.47183 15.0516 6.47183 17.6434V67.9488H2.93042V14.4074ZM93.5293 67.9488V17.6434C93.5293 15.0516 91.4207 12.943 88.8289 12.943H83.822V9.40098H92.064C94.8246 9.40098 97.0705 11.6469 97.0705 14.4074V67.9488H93.5293Z" fill="white"/>
<path d="M75.8858 58.2421H51.2303C50.6131 56.3656 48.8452 55.0066 46.7647 55.0066C44.6842 55.0066 42.9163 56.3658 42.2993 58.2421H40.2932C39.484 58.2421 38.8284 58.898 38.8284 59.707C38.8284 60.516 39.484 61.1718 40.2932 61.1718H42.2991C42.9163 63.0484 44.6842 64.4076 46.7645 64.4076C48.845 64.4076 50.6129 63.0484 51.2301 61.1718H75.8856C76.6948 61.1718 77.3504 60.516 77.3504 59.707C77.3506 58.898 76.6948 58.2421 75.8858 58.2421ZM46.7647 61.4779C45.7883 61.4779 44.994 60.6835 44.994 59.707C44.994 58.7306 45.7883 57.9363 46.7647 57.9363C47.7411 57.9363 48.5354 58.7306 48.5354 59.707C48.5356 60.6834 47.7411 61.4779 46.7647 61.4779Z" fill="white"/>
<path d="M26.5414 58.2422H24.9236C24.1144 58.2422 23.4587 58.898 23.4587 59.707C23.4587 60.516 24.1144 61.1719 24.9236 61.1719H26.5414C27.3505 61.1719 28.0062 60.516 28.0062 59.707C28.0062 58.898 27.3505 58.2422 26.5414 58.2422Z" fill="white"/>
</g>
<defs>
<clipPath id="clip0">
<rect width="100" height="100" fill="white"/>
</clipPath>
</defs>
</svg>
