<svg width="64" height="64" viewBox="0 0 64 64" fill="none" xmlns="http://www.w3.org/2000/svg">
<path fill-rule="evenodd" clip-rule="evenodd" d="M52.3094 20.4281C52.6256 19.4345 52.3094 18.7118 50.9093 18.7118H46.2572C45.0829 18.7118 44.5409 19.3441 44.2248 20.0217C44.2248 20.0217 41.8309 25.8029 38.4886 29.5516C37.4046 30.6356 36.9078 30.9969 36.3208 30.9969C36.0045 30.9969 35.5981 30.6356 35.5981 29.642V20.3829C35.5981 19.2086 35.2368 18.6666 34.243 18.6666H26.9262C26.2036 18.6666 25.752 19.2086 25.752 19.7506C25.752 20.8798 27.423 21.1508 27.6037 24.3124V31.1776C27.6037 32.6681 27.3328 32.939 26.7456 32.939C25.1648 32.939 21.3257 27.1126 19.0222 20.4733C18.5705 19.1634 18.1189 18.6666 16.9446 18.6666H12.2473C10.8923 18.6666 10.6665 19.299 10.6665 19.9765C10.6665 21.196 12.2473 27.3385 18.0285 35.4684C21.8677 41.0237 27.3328 44.0046 32.2558 44.0046C35.2368 44.0046 35.5981 43.3272 35.5981 42.1981V37.9977C35.5981 36.6426 35.869 36.4169 36.8176 36.4169C37.495 36.4169 38.7145 36.7781 41.4696 39.4429C44.6312 42.6045 45.1732 44.0498 46.9346 44.0498H51.5868C52.9417 44.0498 53.5741 43.3724 53.2128 42.0625C52.8062 40.7528 51.2706 38.8558 49.2833 36.5974C48.1993 35.3329 46.5733 33.9328 46.0765 33.2552C45.399 32.352 45.5797 31.9906 46.0765 31.1776C46.0314 31.1776 51.7222 23.1381 52.3094 20.4281Z" stroke="white"/>
</svg>
